<?xml version="1.0" encoding="UTF-8"?>
<svg id="Capa_1" data-name="Capa 1" xmlns="http://www.w3.org/2000/svg" viewBox="0 0 171.5 68.8">
  <defs>
    <style>
      .cls-1 {
        fill: #1b2fcc;
      }

      .cls-2 {
        fill: #bc6039;
      }
    </style>
  </defs>
  <path class="cls-1" d="M30.5,68.8c-4.67,0-8.88-.73-12.65-2.2-3.77-1.47-6.98-3.63-9.65-6.5-2.67-2.87-4.7-6.43-6.1-10.7-1.4-4.27-2.1-9.17-2.1-14.7,0-7.87,1.32-14.35,3.95-19.45C6.58,10.15,10.25,6.33,14.95,3.8,19.65,1.27,25.03,0,31.1,0c4.73,0,8.97,.72,12.7,2.15,3.73,1.43,6.93,3.58,9.6,6.45,2.67,2.87,4.7,6.45,6.1,10.75,1.4,4.3,2.1,9.28,2.1,14.95s-.73,10.77-2.2,15.1c-1.47,4.33-3.58,7.93-6.35,10.8-2.77,2.87-6.05,5.02-9.85,6.45-3.8,1.43-8.03,2.15-12.7,2.15Zm.6-13.1c3.07,0,5.63-.77,7.7-2.3,2.07-1.53,3.6-3.83,4.6-6.9,1-3.07,1.5-6.87,1.5-11.4,0-4.87-.53-8.9-1.6-12.1-1.07-3.2-2.65-5.63-4.75-7.3-2.1-1.67-4.75-2.5-7.95-2.5-3,0-5.53,.8-7.6,2.4-2.07,1.6-3.63,3.97-4.7,7.1-1.07,3.13-1.6,7.03-1.6,11.7,0,3.47,.3,6.55,.9,9.25,.6,2.7,1.52,4.93,2.75,6.7,1.23,1.77,2.75,3.1,4.55,4,1.8,.9,3.87,1.35,6.2,1.35Z"/>
  <path class="cls-1" d="M81.81,68.8c-5.93,0-10.33-2.03-13.2-6.1-2.87-4.07-4.3-10.3-4.3-18.7V14.6h16.2v28.7c0,4.13,.6,7.1,1.8,8.9s2.97,2.7,5.3,2.7c1.53,0,2.93-.4,4.2-1.2,1.27-.8,2.37-2,3.3-3.6,.93-1.6,1.63-3.58,2.1-5.95,.47-2.37,.7-5.12,.7-8.25V14.6h16.2v52.8h-13.5l-.1-19.3h-1.1c-.54,4.8-1.52,8.73-2.95,11.8-1.43,3.07-3.37,5.32-5.8,6.75-2.43,1.43-5.38,2.15-8.85,2.15Z"/>
  <path class="cls-1" d="M149.25,60.06c0-2.59,.72-5.03,1.98-7.1-.84,.44-1.75,.78-2.74,1.04-1.03,.27-2.05,.4-3.05,.4-2,0-3.6-.53-4.8-1.6s-1.8-2.83-1.8-5.3V27.6h12.3V14.6h-12.3V2.6h-9.3l-.07,1.93c-.03,.71-.08,1.43-.22,2.13-.51,2.67-1.41,3.64-2.84,4.92-1.71,1.55-4.24,2.62-7.77,3.02h-1.8l-.1,12.6h6.3v21.6c0,6.8,1.5,11.8,4.5,15,3,3.2,7.6,4.8,13.8,4.8,1.27,0,2.72-.09,4.35-.25,1.61-.17,3.47-.54,5.57-1.13-1.28-2.09-2.01-4.54-2.01-7.16Z"/>
  <circle class="cls-2" cx="162.97" cy="60.06" r="8.54"/>
</svg>